# xmcd
# 
# Track frame offsets:
#     150
#     24229
#     44433
#     65017
#     85316
#     111959
#     134269
#     161092
#     183169
#     205000
#     225277
#     249389
#     266229
#     286658
#     307805
#     324767
#     333322
# 
# Disc length: 4653
# 
# Revision: 4
# Processed by: cddbd v1.5.2PL0 Copyright (c) Steve Scherf et al.
# Submitted via: fre:ac v1.0.17
# 
DISCID=de122b11
DTITLE=Various Artist - World Tour - Salsa Club - The Second Journey [CD2 Heisse Nächte Voller Getanzter Erotik)
DYEAR=2009
DGENRE=Salsa
TTITLE0=Gloria Estefan - Felicidad (Happiness)
TTITLE1=Jerry Rivera - Fresco
TTITLE2=Matt Bianco - Lost in You
TTITLE3=D.L.G. (feat. James "Da Barba" and Speedy G) - No Morirá (No Matter What)
TTITLE4=Grupo Niche - Gotas De Lluvia
TTITLE5=Ommar - Yo Tengo Una Amiga
TTITLE6=Son 14 - Rompamos El Contrato
TTITLE7=Cheo Feliciano - No Me Digas Adios
TTITLE8=Sonora Universal - Celosa
TTITLE9=M People - La Vida Loca
TTITLE10=Joe Arroyo - Mi Libertad
TTITLE11=Mr Bongo - Soul Limbo (Latino Summer Mix)
TTITLE12=Baby Salsa - Canta Contor
TTITLE13=Luis Enrique - La Mañana
TTITLE14=David Alvarez Y Juego De Manos - Cuida'o Cuida'o
TTITLE15=Los Barreto Y Sus Combos - Oye Puchunguita
TTITLE16=David Lopez (Pasion De Buena Vista Presents) - La Vida Es Un Carnaval
EXTD=
EXTT0=
EXTT1=
EXTT2=
EXTT3=
EXTT4=
EXTT5=
EXTT6=
EXTT7=
EXTT8=
EXTT9=
EXTT10=
EXTT11=
EXTT12=
EXTT13=
EXTT14=
EXTT15=
EXTT16=
PLAYORDER=
